<svg width="24" height="30" viewBox="0 0 24 30" fill="none" xmlns="http://www.w3.org/2000/svg">
<path fill-rule="evenodd" clip-rule="evenodd" d="M8.75178 9.29961C8.05825 10.0903 7.66667 11.2366 7.66667 12.6V14.3333C7.66667 15.1939 7.27938 15.9088 6.86882 16.4535C6.49335 16.9517 6.02576 17.399 5.65857 17.7502C5.62774 17.7797 5.59761 17.8085 5.56831 17.8366C5.22481 18.1662 5 18.6136 5 19.1333C5 19.6585 5.39364 20 5.77778 20H18.2222C18.6064 20 19 19.6585 19 19.1333C19 18.6136 18.7752 18.1662 18.4317 17.8366C18.4024 17.8085 18.3723 17.7797 18.3414 17.7502C17.9742 17.399 17.5066 16.9517 17.1312 16.4535C16.7206 15.9088 16.3333 15.1939 16.3333 14.3333V12.6C16.3333 11.2366 15.9417 10.0903 15.2482 9.29962C14.5713 8.52782 13.5251 8 12 8C10.4749 8 9.42875 8.52782 8.75178 9.29961ZM7.24822 7.98079C8.34903 6.72578 9.9695 6 12 6C14.0305 6 15.651 6.72578 16.7518 7.98079C17.836 9.21692 18.3333 10.8706 18.3333 12.6V14.3333C18.3333 14.5774 18.4428 14.8709 18.7283 15.2498C19.002 15.6129 19.3573 15.9534 19.7498 16.3296C19.7718 16.3508 19.794 16.372 19.8163 16.3934C20.5 17.0494 21 17.9996 21 19.1333C21 20.67 19.8018 22 18.2222 22H5.77778C4.19824 22 3 20.67 3 19.1333C3 17.9996 3.49997 17.0494 4.18372 16.3934C4.206 16.372 4.22817 16.3508 4.25022 16.3296C4.6427 15.9534 4.99798 15.6129 5.27166 15.2498C5.55716 14.8709 5.66667 14.5774 5.66667 14.3333V12.6C5.66667 10.8706 6.16397 9.21692 7.24822 7.98079Z" fill="#208BFF"/>
<path fill-rule="evenodd" clip-rule="evenodd" d="M9.44313 23.1696C9.90183 22.862 10.523 22.9844 10.8306 23.4431C10.93 23.5913 11.0844 23.7311 11.292 23.8346C11.4999 23.9381 11.7445 23.9966 12.0001 23.9966C12.2557 23.9966 12.5003 23.9381 12.7082 23.8346C12.9158 23.7311 13.0702 23.5913 13.1696 23.4431C13.4772 22.9844 14.0984 22.862 14.5571 23.1696C15.0158 23.4772 15.1382 24.0984 14.8306 24.5571C14.5235 25.015 14.0945 25.3784 13.6001 25.6247C13.1059 25.8709 12.5547 25.9966 12.0001 25.9966C11.4455 25.9966 10.8943 25.8709 10.4001 25.6247C9.90574 25.3784 9.47669 25.015 9.16957 24.5571C8.86196 24.0984 8.98444 23.4772 9.44313 23.1696Z" fill="#208BFF"/>
<circle cx="18" cy="3" r="3" fill="#F56969"/>
</svg>
