<svg width="54" height="54" viewBox="0 0 54 54" fill="none" xmlns="http://www.w3.org/2000/svg">
<path d="M22.8436 4.0985C25.2057 1.81332 28.9546 1.81332 31.3168 4.0985L31.6342 4.40561C32.985 5.71237 34.8633 6.32265 36.7242 6.05944L37.1615 5.99758C40.4158 5.53729 43.4487 7.74081 44.0165 10.978L44.0928 11.4131C44.4176 13.2642 45.5784 14.862 47.2386 15.7428L47.6288 15.9499C50.5321 17.4903 51.6905 21.0556 50.2471 24.0084L50.0532 24.4052C49.2278 26.0937 49.2278 28.0686 50.0532 29.7571L50.2471 30.1539C51.6905 33.1066 50.5321 36.672 47.6288 38.2124L47.2386 38.4194C45.5784 39.3003 44.4176 40.8981 44.0928 42.7492L44.0165 43.1843C43.4487 46.4215 40.4158 48.625 37.1615 48.1647L36.7242 48.1028C34.8633 47.8396 32.985 48.4499 31.6342 49.7567L31.3168 50.0638C28.9546 52.349 25.2057 52.349 22.8436 50.0638L22.5261 49.7567C21.1753 48.4499 19.2971 47.8396 17.4361 48.1029L16.9988 48.1647C13.7446 48.625 10.7117 46.4215 10.1438 43.1843L10.0675 42.7492C9.74278 40.898 8.58196 39.3003 6.92173 38.4194L6.53156 38.2124C3.62827 36.672 2.46981 33.1066 3.91319 30.1539L4.10717 29.7571C4.93256 28.0686 4.93255 26.0937 4.10717 24.4052L3.91319 24.0084C2.46981 21.0556 3.62827 17.4903 6.53156 15.9499L6.92173 15.7428C8.58196 14.862 9.74278 13.2642 10.0675 11.4131L10.1438 10.978C10.7117 7.74081 13.7446 5.53729 16.9988 5.99758L17.4361 6.05944C19.2971 6.32265 21.1753 5.71237 22.5261 4.40561L22.8436 4.0985Z" fill="url(#paint0_linear_901_1697)"/>
<path d="M20.9483 19.7339H23.0235M21.9859 18.6963V20.7715M28.7302 18.6963L28.2115 20.7715M35.4746 19.7339H37.5498M36.5122 18.6963V20.7715M32.3618 23.8842L31.3242 24.9218M35.4746 28.0346L37.5498 27.5158M35.4746 34.2602H37.5498M36.5122 33.2226V35.2978M31.324 31.6849L24.561 24.9218L20.006 34.862C19.9159 35.055 19.8875 35.271 19.9244 35.4807C19.9614 35.6904 20.062 35.8837 20.2126 36.0343C20.3632 36.1849 20.5565 36.2855 20.7662 36.3225C20.9759 36.3594 21.1919 36.331 21.3849 36.2409L31.324 31.6849Z" stroke="white" stroke-width="1.3712" stroke-linecap="round" stroke-linejoin="round"/>
<defs>
<linearGradient id="paint0_linear_901_1697" x1="27.0802" y1="0" x2="27.0802" y2="54.1623" gradientUnits="userSpaceOnUse">
<stop stop-color="#00FF94"/>
<stop offset="1" stop-color="#009958"/>
</linearGradient>
</defs>
</svg>
