<svg width="24" height="24" viewBox="0 0 24 24" fill="none" xmlns="http://www.w3.org/2000/svg">
<path fill-rule="evenodd" clip-rule="evenodd" d="M6.57184 3.29236C7.23816 3.06526 7.93573 3.00024 8.55259 3.00024C10.0173 3.00024 11.1217 3.62557 12.0001 4.25321C12.8856 3.62076 13.9825 3.00023 15.4645 3.00024C16.1234 3.00024 16.7973 3.09233 17.4504 3.3096C21.4399 4.60188 22.7249 8.89716 21.6111 12.4254L21.6064 12.4403L21.6012 12.455C20.9848 14.2146 19.9769 15.8216 18.6544 17.1363L18.6487 17.142L18.643 17.1475C16.7962 18.9255 14.7223 20.5316 12.5144 21.8574L11.9932 22.1704L11.4754 21.8517C9.2723 20.4954 7.23758 18.9324 5.36838 17.14L5.36067 17.1326L5.35312 17.125C4.04202 15.8128 3.0341 14.2176 2.40852 12.4597L2.40329 12.445L2.39852 12.4301C1.26317 8.89412 2.5547 4.60399 6.57184 3.29236ZM8.55259 5.00024C8.05927 5.00024 7.59871 5.05459 7.21279 5.18689L7.20536 5.18943L7.19789 5.19186C4.50974 6.06644 3.40868 9.01178 4.29808 11.804C4.82368 13.274 5.66692 14.6073 6.76049 15.7039C8.375 17.2512 10.1216 18.6186 12.0053 19.8231C13.8827 18.6439 15.6547 17.2475 17.2499 15.7124C18.3492 14.6179 19.1913 13.2779 19.7085 11.8087C20.5855 9.00796 19.4772 6.06655 16.831 5.21125L16.822 5.20837L16.822 5.20832C16.3984 5.06699 15.9399 5.00024 15.4645 5.00024C14.3737 5.00024 13.6196 5.52522 12.6046 6.29637L11.9986 6.75669L11.3935 6.29542C10.3945 5.53406 9.62392 5.00024 8.55259 5.00024Z" fill="#208BFF"/>
</svg>
