<svg width="20" height="20" viewBox="0 0 20 20" fill="none" xmlns="http://www.w3.org/2000/svg">
<path d="M17.5262 16.5206L16.5822 13.3206C16.3312 12.4919 15.818 11.7671 15.1198 11.2549C14.4216 10.7428 13.5761 10.4711 12.7102 10.4806H12.3422C13.0007 10.0253 13.537 9.41494 13.9039 8.70343C14.2708 7.99192 14.4571 7.20106 14.4462 6.40059C14.4939 5.17798 14.0551 3.98632 13.2259 3.08663C12.3966 2.18694 11.2447 1.65258 10.0222 1.60059C8.80195 1.6567 7.65324 2.19258 6.82617 3.09157C5.99909 3.99056 5.56063 5.17987 5.60622 6.40059C5.59696 7.20166 5.78473 7.99273 6.15301 8.70418C6.52129 9.41563 7.0588 10.0257 7.71823 10.4806H7.34223C6.4764 10.4711 5.63087 10.7428 4.93266 11.2549C4.23446 11.7671 3.72128 12.4919 3.47022 13.3206L2.51822 16.5206C2.4608 16.7206 2.47682 16.9346 2.56338 17.1239C2.64994 17.3131 2.80134 17.4652 2.99022 17.5526C5.22002 18.5011 7.60155 19.043 10.0222 19.1526H10.0622C12.4692 19.0369 14.8365 18.4952 17.0542 17.5526C17.2442 17.4665 17.3967 17.3146 17.4834 17.1249C17.5702 16.9353 17.5854 16.7206 17.5262 16.5206ZM9.94222 11.8166L9.29422 11.2566H10.5902L9.94222 11.8166ZM11.8062 11.2566H12.6062L11.5182 13.3526L10.5022 12.4086L11.8062 11.2566ZM10.0222 2.40059C10.7615 2.41946 11.4775 2.66306 12.0748 3.09895C12.6722 3.53484 13.1227 4.14234 13.3662 4.84059C13.0014 4.9087 12.6271 4.9087 12.2622 4.84059C11.7565 4.72054 11.289 4.47576 10.9022 4.12859C10.8291 4.0681 10.7371 4.03501 10.6422 4.03501C10.5473 4.03501 10.4554 4.0681 10.3822 4.12859C9.87043 4.54523 9.26734 4.8349 8.62221 4.97394C7.97707 5.11298 7.3082 5.09744 6.67022 4.92859C6.90053 4.21327 7.34613 3.58653 7.9461 3.13405C8.54608 2.68156 9.27116 2.4254 10.0222 2.40059ZM6.40622 6.40059C6.40111 6.13279 6.41985 5.86506 6.46222 5.60059C6.89079 5.71136 7.33158 5.7678 7.77422 5.76859C8.26 5.78682 8.74569 5.73016 9.21423 5.60059C9.71711 5.4512 10.1926 5.22158 10.6222 4.92059C11.0519 5.25107 11.549 5.4832 12.0782 5.60059C12.5819 5.70797 13.1026 5.70797 13.6062 5.60059C13.6481 5.84639 13.6695 6.09524 13.6702 6.34459C13.7181 7.35509 13.3636 8.34339 12.6844 9.0931C12.0052 9.8428 11.0565 10.2928 10.0462 10.3446C9.04389 10.2948 8.1011 9.85373 7.42046 9.11624C6.73982 8.37876 6.37566 7.40369 6.40622 6.40059ZM8.09422 11.2806L9.43822 12.4486L8.51022 13.3686L7.31823 11.2566H8.07823L8.09422 11.2806ZM3.29422 16.7686L4.24622 13.5686C4.40657 13.0516 4.69544 12.5838 5.08579 12.2088C5.47614 11.8338 5.95523 11.564 6.47822 11.4246L8.07823 14.2486C8.11156 14.3001 8.15496 14.3444 8.20582 14.3788C8.25669 14.4131 8.31397 14.4369 8.37423 14.4486H8.43022C8.48269 14.4492 8.5347 14.4389 8.58292 14.4182C8.63114 14.3975 8.67451 14.367 8.71023 14.3286L9.60623 13.3606L9.64622 18.3206C7.47288 18.165 5.34017 17.6514 3.33422 16.8006C3.33422 16.8006 3.27022 16.8006 3.28622 16.7446L3.29422 16.7686ZM16.7182 16.8006C14.7219 17.6244 12.6077 18.1266 10.4542 18.2886L10.4062 13.4406L11.3262 14.2966C11.4018 14.3623 11.4981 14.3991 11.5982 14.4006H11.6702C11.7302 14.3911 11.787 14.3672 11.8358 14.331C11.8846 14.2948 11.9238 14.2473 11.9502 14.1926L13.4302 11.3526C13.9877 11.4689 14.504 11.7319 14.9259 12.1144C15.3478 12.497 15.66 12.9851 15.8302 13.5286L16.7742 16.7286C16.7746 16.7452 16.7693 16.7615 16.7591 16.7746C16.7489 16.7877 16.7344 16.7969 16.7182 16.8006Z" fill="white" style="mix-blend-mode:luminosity"/>
<path d="M17.5262 16.5206L16.5822 13.3206C16.3312 12.4919 15.818 11.7671 15.1198 11.2549C14.4216 10.7428 13.5761 10.4711 12.7102 10.4806H12.3422C13.0007 10.0253 13.537 9.41494 13.9039 8.70343C14.2708 7.99192 14.4571 7.20106 14.4462 6.40059C14.4939 5.17798 14.0551 3.98632 13.2259 3.08663C12.3966 2.18694 11.2447 1.65258 10.0222 1.60059C8.80195 1.6567 7.65324 2.19258 6.82617 3.09157C5.99909 3.99056 5.56063 5.17987 5.60622 6.40059C5.59696 7.20166 5.78473 7.99273 6.15301 8.70418C6.52129 9.41563 7.0588 10.0257 7.71823 10.4806H7.34223C6.4764 10.4711 5.63087 10.7428 4.93266 11.2549C4.23446 11.7671 3.72128 12.4919 3.47022 13.3206L2.51822 16.5206C2.4608 16.7206 2.47682 16.9346 2.56338 17.1239C2.64994 17.3131 2.80134 17.4652 2.99022 17.5526C5.22002 18.5011 7.60155 19.043 10.0222 19.1526H10.0622C12.4692 19.0369 14.8365 18.4952 17.0542 17.5526C17.2442 17.4665 17.3967 17.3146 17.4834 17.1249C17.5702 16.9353 17.5854 16.7206 17.5262 16.5206ZM9.94222 11.8166L9.29422 11.2566H10.5902L9.94222 11.8166ZM11.8062 11.2566H12.6062L11.5182 13.3526L10.5022 12.4086L11.8062 11.2566ZM10.0222 2.40059C10.7615 2.41946 11.4775 2.66306 12.0748 3.09895C12.6722 3.53484 13.1227 4.14234 13.3662 4.84059C13.0014 4.9087 12.6271 4.9087 12.2622 4.84059C11.7565 4.72054 11.289 4.47576 10.9022 4.12859C10.8291 4.0681 10.7371 4.03501 10.6422 4.03501C10.5473 4.03501 10.4554 4.0681 10.3822 4.12859C9.87043 4.54523 9.26734 4.8349 8.62221 4.97394C7.97707 5.11298 7.3082 5.09744 6.67022 4.92859C6.90053 4.21327 7.34613 3.58653 7.9461 3.13405C8.54608 2.68156 9.27116 2.4254 10.0222 2.40059ZM6.40622 6.40059C6.40111 6.13279 6.41985 5.86506 6.46222 5.60059C6.89079 5.71136 7.33158 5.7678 7.77422 5.76859C8.26 5.78682 8.74569 5.73016 9.21423 5.60059C9.71711 5.4512 10.1926 5.22158 10.6222 4.92059C11.0519 5.25107 11.549 5.4832 12.0782 5.60059C12.5819 5.70797 13.1026 5.70797 13.6062 5.60059C13.6481 5.84639 13.6695 6.09524 13.6702 6.34459C13.7181 7.35509 13.3636 8.34339 12.6844 9.0931C12.0052 9.8428 11.0565 10.2928 10.0462 10.3446C9.04389 10.2948 8.1011 9.85373 7.42046 9.11624C6.73982 8.37876 6.37566 7.40369 6.40622 6.40059ZM8.09422 11.2806L9.43822 12.4486L8.51022 13.3686L7.31823 11.2566H8.07823L8.09422 11.2806ZM3.29422 16.7686L4.24622 13.5686C4.40657 13.0516 4.69544 12.5838 5.08579 12.2088C5.47614 11.8338 5.95523 11.564 6.47822 11.4246L8.07823 14.2486C8.11156 14.3001 8.15496 14.3444 8.20582 14.3788C8.25669 14.4131 8.31397 14.4369 8.37423 14.4486H8.43022C8.48269 14.4492 8.5347 14.4389 8.58292 14.4182C8.63114 14.3975 8.67451 14.367 8.71023 14.3286L9.60623 13.3606L9.64622 18.3206C7.47288 18.165 5.34017 17.6514 3.33422 16.8006C3.33422 16.8006 3.27022 16.8006 3.28622 16.7446L3.29422 16.7686ZM16.7182 16.8006C14.7219 17.6244 12.6077 18.1266 10.4542 18.2886L10.4062 13.4406L11.3262 14.2966C11.4018 14.3623 11.4981 14.3991 11.5982 14.4006H11.6702C11.7302 14.3911 11.787 14.3672 11.8358 14.331C11.8846 14.2948 11.9238 14.2473 11.9502 14.1926L13.4302 11.3526C13.9877 11.4689 14.504 11.7319 14.9259 12.1144C15.3478 12.497 15.66 12.9851 15.8302 13.5286L16.7742 16.7286C16.7746 16.7452 16.7693 16.7615 16.7591 16.7746C16.7489 16.7877 16.7344 16.7969 16.7182 16.8006Z" fill="#3D3D3D" style="mix-blend-mode:overlay"/>
</svg>
