<svg width="281" height="40" viewBox="0 0 281 40" fill="none" xmlns="http://www.w3.org/2000/svg">
<path d="M212.492 39.8861C210.912 40.9504 200.779 34.2041 198.839 34.1893C196.898 34.1746 186.651 40.7657 185.09 39.6775C183.529 38.5894 187.198 27.4126 186.614 25.6668C186.029 23.921 176.218 16.7633 176.832 15.0265C177.447 13.2898 189.848 13.1285 191.427 12.0642C193.007 11.0001 197.19 -0.014685 199.131 1.46996e-05C201.072 0.0148422 205.066 11.0919 206.627 12.18C208.188 13.2681 220.585 13.6183 221.17 15.3641C221.754 17.1099 211.822 24.1173 211.208 25.8541C210.593 27.5908 214.071 38.8219 212.492 39.8861Z" fill="#FBBC05"/>
<path d="M153.558 39.8861C151.979 40.9504 141.846 34.2041 139.905 34.1893C137.964 34.1746 127.717 40.7657 126.156 39.6775C124.595 38.5894 128.265 27.4126 127.68 25.6668C127.095 23.921 117.284 16.7633 117.899 15.0265C118.513 13.2898 130.914 13.1285 132.494 12.0642C134.073 11.0001 138.257 -0.014685 140.197 1.46996e-05C142.138 0.0148422 146.133 11.0919 147.694 12.18C149.254 13.2681 161.651 13.6183 162.236 15.3641C162.821 17.1099 152.889 24.1173 152.274 25.8541C151.659 27.5908 155.137 38.8219 153.558 39.8861Z" fill="#FBBC05"/>
<path d="M94.6206 39.8861C93.0413 40.9504 82.9082 34.2041 80.9675 34.1893C79.0267 34.1746 68.7795 40.7657 67.2187 39.6775C65.6579 38.5894 69.3273 27.4126 68.7425 25.6668C68.1578 23.921 58.3467 16.7633 58.9613 15.0265C59.576 13.2898 71.9769 13.1285 73.5562 12.0642C75.1354 11.0001 79.3191 -0.014685 81.26 1.46996e-05C83.2006 0.0148422 87.1953 11.0919 88.7561 12.18C90.3169 13.2681 102.714 13.6183 103.299 15.3641C103.883 17.1099 93.9512 24.1173 93.3365 25.8541C92.722 27.5908 96.1998 38.8219 94.6206 39.8861Z" fill="#FBBC05"/>
<path d="M35.687 39.8861C34.1077 40.9504 23.9746 34.2041 22.0339 34.1893C20.0931 34.1746 9.84595 40.7657 8.28513 39.6775C6.72431 38.5894 10.3937 27.4126 9.80895 25.6668C9.22419 23.921 -0.586876 16.7633 0.0276963 15.0265C0.642404 13.2898 13.0433 13.1285 14.6226 12.0642C16.2018 11.0001 20.3855 -0.014685 22.3264 1.46996e-05C24.267 0.0148422 28.2617 11.0919 29.8225 12.18C31.3833 13.2681 43.78 13.6183 44.3649 15.3641C44.9497 17.1099 35.0176 24.1173 34.4029 25.8541C33.7884 27.5908 37.2662 38.8219 35.687 39.8861Z" fill="#FBBC05"/>
<path d="M271.687 39.8861C270.108 40.9504 259.975 34.2041 258.034 34.1893C256.093 34.1746 245.846 40.7657 244.285 39.6775C242.724 38.5894 246.394 27.4126 245.809 25.6668C245.224 23.921 235.413 16.7633 236.028 15.0265C236.642 13.2898 249.043 13.1285 250.623 12.0642C252.202 11.0001 256.386 -0.014685 258.326 1.46996e-05C260.267 0.0148422 264.262 11.0919 265.823 12.18C267.383 13.2681 279.78 13.6183 280.365 15.3641C280.95 17.1099 271.018 24.1173 270.403 25.8541C269.788 27.5908 273.266 38.8219 271.687 39.8861Z" fill="#EAEAEA"/>
</svg>
