<svg width="241" height="240" viewBox="0 0 241 240" fill="none" xmlns="http://www.w3.org/2000/svg">
<path d="M108.141 11.956C115.032 5.28975 125.968 5.28975 132.859 11.956L143.921 22.6572C147.861 26.4692 153.34 28.2495 158.769 27.4817L174.008 25.3262C183.501 23.9834 192.349 30.4115 194.005 39.8549L196.664 55.0143C197.612 60.4145 200.998 65.0754 205.841 67.645L219.437 74.8586C227.906 79.3522 231.286 89.753 227.075 98.3665L220.316 112.194C217.908 117.119 217.908 122.881 220.316 127.806L227.075 141.633C231.286 150.247 227.906 160.648 219.437 165.141L205.841 172.355C200.998 174.925 197.612 179.585 196.664 184.986L194.005 200.145C192.349 209.589 183.501 216.017 174.008 214.674L158.769 212.518C153.34 211.75 147.861 213.531 143.921 217.343L132.859 228.044C125.968 234.71 115.032 234.71 108.141 228.044L97.0793 217.343C93.1388 213.531 87.6597 211.75 82.2311 212.518L66.9919 214.674C57.4987 216.017 48.6513 209.589 46.9948 200.145L44.3356 184.986C43.3883 179.585 40.002 174.925 35.1589 172.355L21.5631 165.141C13.0938 160.648 9.71437 150.247 13.9249 141.633L20.6841 127.806C23.0919 122.881 23.0919 117.119 20.6841 112.194L13.9249 98.3665C9.71437 89.753 13.0938 79.3522 21.5631 74.8586L35.1589 67.645C40.002 65.0754 43.3883 60.4145 44.3356 55.0144L46.9948 39.8549C48.6513 30.4115 57.4987 23.9834 66.9919 25.3262L82.2311 27.4817C87.6597 28.2495 93.1388 26.4692 97.0793 22.6572L108.141 11.956Z" fill="url(#paint0_linear_921_3095)"/>
<path fill-rule="evenodd" clip-rule="evenodd" d="M165.177 86.4434C167.602 88.5649 167.848 92.2501 165.726 94.6747L114.684 153.008C112.571 155.424 108.903 155.678 106.476 153.577L75.8511 127.062C73.4155 124.953 73.1505 121.269 75.2593 118.833C77.368 116.398 81.052 116.133 83.4876 118.242L109.726 140.958L156.946 86.9921C159.067 84.5676 162.753 84.3219 165.177 86.4434Z" fill="white"/>
<defs>
<linearGradient id="paint0_linear_921_3095" x1="120.5" y1="0" x2="120.5" y2="240" gradientUnits="userSpaceOnUse">
<stop stop-color="#00FF94"/>
<stop offset="1" stop-color="#009958"/>
</linearGradient>
</defs>
</svg>
