<svg width="28" height="28" viewBox="0 0 28 28" fill="none" xmlns="http://www.w3.org/2000/svg">
<path d="M9.33333 10.5013H18.6667M9.33333 15.168H16.3333M21 4.66797C21.9283 4.66797 22.8185 5.03672 23.4749 5.6931C24.1313 6.34947 24.5 7.23971 24.5 8.16797V17.5013C24.5 18.4296 24.1313 19.3198 23.4749 19.9762C22.8185 20.6326 21.9283 21.0013 21 21.0013H15.1667L9.33333 24.5013V21.0013H7C6.07174 21.0013 5.1815 20.6326 4.52513 19.9762C3.86875 19.3198 3.5 18.4296 3.5 17.5013V8.16797C3.5 7.23971 3.86875 6.34947 4.52513 5.6931C5.1815 5.03672 6.07174 4.66797 7 4.66797H21Z" stroke="#2F80ED" stroke-width="2" stroke-linecap="round" stroke-linejoin="round"/>
</svg>
