<svg width="28" height="28" viewBox="0 0 28 28" fill="none" xmlns="http://www.w3.org/2000/svg">
<path d="M10.5 24.5V17.5C10.5 16.8812 10.7458 16.2877 11.1834 15.8501C11.621 15.4125 12.2145 15.1667 12.8333 15.1667H15.1667C15.7855 15.1667 16.379 15.4125 16.8166 15.8501C17.2542 16.2877 17.5 16.8812 17.5 17.5V24.5M5.83333 14H3.5L14 3.5L24.5 14H22.1667V22.1667C22.1667 22.7855 21.9208 23.379 21.4832 23.8166C21.0457 24.2542 20.4522 24.5 19.8333 24.5H8.16667C7.54783 24.5 6.95434 24.2542 6.51675 23.8166C6.07917 23.379 5.83333 22.7855 5.83333 22.1667V14Z" stroke="#2F80ED" stroke-width="2" stroke-linecap="round" stroke-linejoin="round"/>
</svg>
