<svg width="21" height="21" viewBox="0 0 21 21" fill="none" xmlns="http://www.w3.org/2000/svg">
<path d="M3 18V16.3333C3 15.4493 3.35119 14.6014 3.97631 13.9763C4.60143 13.3512 5.44928 13 6.33333 13H9.66667C10.5507 13 11.3986 13.3512 12.0237 13.9763C12.6488 14.6014 13 15.4493 13 16.3333V18M13.8333 3.10905C14.5503 3.29263 15.1859 3.70963 15.6397 4.29431C16.0935 4.87898 16.3399 5.59807 16.3399 6.33822C16.3399 7.07836 16.0935 7.79745 15.6397 8.38212C15.1859 8.9668 14.5503 9.3838 13.8333 9.56738M18 18.0003V16.3337C17.9958 15.598 17.7483 14.8843 17.2961 14.304C16.8439 13.7237 16.2124 13.3092 15.5 13.1253M4.66667 6.33333C4.66667 7.21739 5.01786 8.06524 5.64298 8.69036C6.2681 9.31548 7.11594 9.66667 8 9.66667C8.88405 9.66667 9.7319 9.31548 10.357 8.69036C10.9821 8.06524 11.3333 7.21739 11.3333 6.33333C11.3333 5.44928 10.9821 4.60143 10.357 3.97631C9.7319 3.35119 8.88405 3 8 3C7.11594 3 6.2681 3.35119 5.64298 3.97631C5.01786 4.60143 4.66667 5.44928 4.66667 6.33333Z" stroke="white" stroke-width="1.5" stroke-linecap="round" stroke-linejoin="round"/>
</svg>
