<svg width="28" height="28" viewBox="0 0 28 28" fill="none" xmlns="http://www.w3.org/2000/svg">
<g clip-path="url(#clip0_742_3893)">
<g clip-path="url(#clip1_742_3893)">
<path d="M22.7495 14.6663L13.9995 23.3323L5.24954 14.6663C4.67239 14.1047 4.21779 13.4297 3.91434 12.6837C3.6109 11.9378 3.46519 11.1371 3.4864 10.3321C3.5076 9.52705 3.69526 8.73514 4.03755 8.00621C4.37985 7.27728 4.86936 6.62712 5.47527 6.09666C6.08118 5.56621 6.79036 5.16696 7.55815 4.92405C8.32594 4.68114 9.13571 4.59983 9.93647 4.68525C10.7372 4.77067 11.5116 5.02097 12.2109 5.42038C12.9102 5.81978 13.5192 6.35965 13.9995 7.00599C14.482 6.36434 15.0917 5.82919 15.7905 5.43402C16.4893 5.03886 17.2621 4.79218 18.0606 4.70943C18.8591 4.62667 19.6661 4.70963 20.4311 4.95311C21.1961 5.19659 21.9026 5.59534 22.5063 6.12441C23.1101 6.65348 23.5982 7.30148 23.94 8.02786C24.2819 8.75424 24.4701 9.54335 24.4929 10.3458C24.5157 11.1483 24.3727 11.9468 24.0727 12.6914C23.7727 13.4361 23.3223 14.1108 22.7495 14.6733" stroke="#2F80ED" stroke-width="2" stroke-linecap="round" stroke-linejoin="round"/>
</g>
</g>
<defs>
<clipPath id="clip0_742_3893">
<rect width="28" height="28" fill="white"/>
</clipPath>
<clipPath id="clip1_742_3893">
<rect width="28" height="28" fill="white"/>
</clipPath>
</defs>
</svg>
