<svg width="17" height="18" viewBox="0 0 17 18" fill="none" xmlns="http://www.w3.org/2000/svg">
<path d="M9.5651 5.10369L12.3984 7.93702M2.83594 14.6662H5.66927L13.1068 7.22873C13.2928 7.04269 13.4404 6.82183 13.5411 6.57876C13.6418 6.33569 13.6936 6.07516 13.6936 5.81206C13.6936 5.54896 13.6418 5.28844 13.5411 5.04537C13.4404 4.8023 13.2928 4.58144 13.1068 4.3954C12.9207 4.20936 12.6999 4.06178 12.4568 3.9611C12.2137 3.86042 11.9532 3.80859 11.6901 3.80859C11.427 3.80859 11.1665 3.86042 10.9234 3.9611C10.6803 4.06178 10.4595 4.20936 10.2734 4.3954L2.83594 11.8329V14.6662Z" stroke="#4F4F4F" stroke-linecap="round" stroke-linejoin="round"/>
</svg>
