<svg width="32" height="32" viewBox="0 0 32 32" fill="none" xmlns="http://www.w3.org/2000/svg">
<path d="M15.9987 7.9987C15.9987 8.70594 16.2797 9.38422 16.7797 9.88432C17.2798 10.3844 17.9581 10.6654 18.6654 10.6654C19.3726 10.6654 20.0509 10.3844 20.551 9.88432C21.0511 9.38422 21.332 8.70594 21.332 7.9987M15.9987 7.9987C15.9987 7.29145 16.2797 6.61318 16.7797 6.11308C17.2798 5.61298 17.9581 5.33203 18.6654 5.33203C19.3726 5.33203 20.0509 5.61298 20.551 6.11308C21.0511 6.61318 21.332 7.29145 21.332 7.9987M15.9987 7.9987H5.33203M21.332 7.9987H26.6654M7.9987 15.9987C7.9987 16.7059 8.27965 17.3842 8.77975 17.8843C9.27984 18.3844 9.95812 18.6654 10.6654 18.6654C11.3726 18.6654 12.0509 18.3844 12.551 17.8843C13.0511 17.3842 13.332 16.7059 13.332 15.9987M7.9987 15.9987C7.9987 15.2915 8.27965 14.6132 8.77975 14.1131C9.27984 13.613 9.95812 13.332 10.6654 13.332C11.3726 13.332 12.0509 13.613 12.551 14.1131C13.0511 14.6132 13.332 15.2915 13.332 15.9987M7.9987 15.9987H5.33203M13.332 15.9987H26.6654M19.9987 23.9987C19.9987 24.7059 20.2797 25.3842 20.7797 25.8843C21.2798 26.3844 21.9581 26.6654 22.6654 26.6654C23.3726 26.6654 24.0509 26.3844 24.551 25.8843C25.0511 25.3842 25.332 24.7059 25.332 23.9987M19.9987 23.9987C19.9987 23.2915 20.2797 22.6132 20.7797 22.1131C21.2798 21.613 21.9581 21.332 22.6654 21.332C23.3726 21.332 24.0509 21.613 24.551 22.1131C25.0511 22.6132 25.332 23.2915 25.332 23.9987M19.9987 23.9987H5.33203M25.332 23.9987H26.6654" stroke="#BDBDBD" stroke-width="2" stroke-linecap="round" stroke-linejoin="round"/>
</svg>
