<svg width="28" height="28" viewBox="0 0 28 28" fill="none" xmlns="http://www.w3.org/2000/svg">
<path d="M10.5013 19.8333V21C10.5013 21.9283 10.87 22.8185 11.5264 23.4749C12.1828 24.1313 13.073 24.5 14.0013 24.5C14.9296 24.5 15.8198 24.1313 16.4762 23.4749C17.1326 22.8185 17.5013 21.9283 17.5013 21V19.8333M11.668 5.83333C11.668 5.21449 11.9138 4.621 12.3514 4.18342C12.789 3.74583 13.3825 3.5 14.0013 3.5C14.6201 3.5 15.2136 3.74583 15.6512 4.18342C16.0888 4.621 16.3346 5.21449 16.3346 5.83333C17.6744 6.46687 18.8166 7.45305 19.6387 8.68618C20.4608 9.91932 20.9318 11.3529 21.0013 12.8333V16.3333C21.0891 17.0587 21.346 17.7532 21.7512 18.3611C22.1565 18.9691 22.6989 19.4733 23.3346 19.8333H4.66797C5.30373 19.4733 5.84608 18.9691 6.25135 18.3611C6.65663 17.7532 6.9135 17.0587 7.0013 16.3333V12.8333C7.07079 11.3529 7.54182 9.91932 8.36391 8.68618C9.186 7.45305 10.3282 6.46687 11.668 5.83333Z" stroke="#2F80ED" stroke-width="2" stroke-linecap="round" stroke-linejoin="round"/>
</svg>
