<svg width="30" height="30" viewBox="0 0 30 30" fill="none" xmlns="http://www.w3.org/2000/svg">
<path fill-rule="evenodd" clip-rule="evenodd" d="M6.61612 6.61612C7.10427 6.12796 7.89573 6.12796 8.38388 6.61612L23.3839 21.6161C23.872 22.1043 23.872 22.8957 23.3839 23.3839C22.8957 23.872 22.1043 23.872 21.6161 23.3839L6.61612 8.38388C6.12796 7.89573 6.12796 7.10427 6.61612 6.61612Z" fill="#8E8E93"/>
<path fill-rule="evenodd" clip-rule="evenodd" d="M23.3839 6.61612C22.8957 6.12796 22.1043 6.12796 21.6161 6.61612L6.61612 21.6161C6.12796 22.1043 6.12796 22.8957 6.61612 23.3839C7.10427 23.872 7.89573 23.872 8.38388 23.3839L23.3839 8.38388C23.872 7.89573 23.872 7.10427 23.3839 6.61612Z" fill="#8E8E93"/>
</svg>
