<svg width="31" height="30" viewBox="0 0 31 30" fill="none" xmlns="http://www.w3.org/2000/svg">
<path d="M9.25 13.75V23.75C9.25 24.0815 9.1183 24.3995 8.88388 24.6339C8.64946 24.8683 8.33152 25 8 25H5.5C5.16848 25 4.85054 24.8683 4.61612 24.6339C4.3817 24.3995 4.25 24.0815 4.25 23.75V15C4.25 14.6685 4.3817 14.3505 4.61612 14.1161C4.85054 13.8817 5.16848 13.75 5.5 13.75H9.25ZM9.25 13.75C10.5761 13.75 11.8479 13.2232 12.7855 12.2855C13.7232 11.3479 14.25 10.0761 14.25 8.75V7.5C14.25 6.83696 14.5134 6.20107 14.9822 5.73223C15.4511 5.26339 16.087 5 16.75 5C17.413 5 18.0489 5.26339 18.5178 5.73223C18.9866 6.20107 19.25 6.83696 19.25 7.5V13.75H23C23.663 13.75 24.2989 14.0134 24.7678 14.4822C25.2366 14.9511 25.5 15.587 25.5 16.25L24.25 22.5C24.0702 23.2668 23.7292 23.9253 23.2783 24.3762C22.8274 24.8271 22.291 25.046 21.75 25H13C12.0054 25 11.0516 24.6049 10.3483 23.9017C9.64509 23.1984 9.25 22.2446 9.25 21.25" stroke="#4F4F4F" stroke-width="2" stroke-linecap="round" stroke-linejoin="round"/>
</svg>
