<svg width="21" height="15" viewBox="0 0 21 15" fill="none" xmlns="http://www.w3.org/2000/svg">
<path d="M3.5 12C3.5 12.5304 3.71071 13.0391 4.08579 13.4142C4.46086 13.7893 4.96957 14 5.5 14C6.03043 14 6.53914 13.7893 6.91421 13.4142C7.28929 13.0391 7.5 12.5304 7.5 12M3.5 12C3.5 11.4696 3.71071 10.9609 4.08579 10.5858C4.46086 10.2107 4.96957 10 5.5 10C6.03043 10 6.53914 10.2107 6.91421 10.5858C7.28929 10.9609 7.5 11.4696 7.5 12M3.5 12H1.5V6M7.5 12H13.5M13.5 12C13.5 12.5304 13.7107 13.0391 14.0858 13.4142C14.4609 13.7893 14.9696 14 15.5 14C16.0304 14 16.5391 13.7893 16.9142 13.4142C17.2893 13.0391 17.5 12.5304 17.5 12M13.5 12C13.5 11.4696 13.7107 10.9609 14.0858 10.5858C14.4609 10.2107 14.9696 10 15.5 10C16.0304 10 16.5391 10.2107 16.9142 10.5858C17.2893 10.9609 17.5 11.4696 17.5 12M17.5 12H19.5V8C19.5 7.46957 19.2893 6.96086 18.9142 6.58579C18.5391 6.21071 18.0304 6 17.5 6H16.5M1.5 6L3.5 1H12.5L16.5 6M1.5 6H16.5M10.5 6V1" stroke="#828282" stroke-width="2" stroke-linecap="round" stroke-linejoin="round"/>
</svg>
