<svg width="7" height="6" viewBox="0 0 7 6" fill="none" xmlns="http://www.w3.org/2000/svg">
<path d="M1.06516 4.49657C1.06516 4.67003 1.13407 4.83639 1.25672 4.95904C1.37938 5.0817 1.54573 5.1506 1.71919 5.1506C1.89265 5.1506 2.059 5.0817 2.18166 4.95904C2.30431 4.83639 2.37322 4.67003 2.37322 4.49657M1.06516 4.49657C1.06516 4.32311 1.13407 4.15676 1.25672 4.03411C1.37938 3.91145 1.54573 3.84255 1.71919 3.84255C1.89265 3.84255 2.059 3.91145 2.18166 4.03411C2.30431 4.15676 2.37322 4.32311 2.37322 4.49657M1.06516 4.49657H0.411133V2.53449M2.37322 4.49657H4.33531M4.33531 4.49657C4.33531 4.67003 4.40421 4.83639 4.52687 4.95904C4.64952 5.0817 4.81588 5.1506 4.98934 5.1506C5.1628 5.1506 5.32915 5.0817 5.4518 4.95904C5.57446 4.83639 5.64336 4.67003 5.64336 4.49657M4.33531 4.49657C4.33531 4.32311 4.40421 4.15676 4.52687 4.03411C4.64952 3.91145 4.81588 3.84255 4.98934 3.84255C5.1628 3.84255 5.32915 3.91145 5.4518 4.03411C5.57446 4.15676 5.64336 4.32311 5.64336 4.49657M5.64336 4.49657H6.29739V3.18852C6.29739 3.01506 6.22849 2.8487 6.10583 2.72605C5.98318 2.60339 5.81682 2.53449 5.64336 2.53449H5.31635M0.411133 2.53449L1.06516 0.899414H4.00829L5.31635 2.53449M0.411133 2.53449H5.31635M3.35426 2.53449V0.899414" stroke="#828282" stroke-width="0.654029" stroke-linecap="round" stroke-linejoin="round"/>
</svg>
