<svg width="17" height="21" viewBox="0 0 17 21" fill="none" xmlns="http://www.w3.org/2000/svg">
<path class="svg-path" d="M5.5 3.5H3.5C2.96957 3.5 2.46086 3.71071 2.08579 4.08579C1.71071 4.46086 1.5 4.96957 1.5 5.5V17.5C1.5 18.0304 1.71071 18.5391 2.08579 18.9142C2.46086 19.2893 2.96957 19.5 3.5 19.5H13.5C14.0304 19.5 14.5391 19.2893 14.9142 18.9142C15.2893 18.5391 15.5 18.0304 15.5 17.5V5.5C15.5 4.96957 15.2893 4.46086 14.9142 4.08579C14.5391 3.71071 14.0304 3.5 13.5 3.5H11.5M5.5 3.5C5.5 2.96957 5.71071 2.46086 6.08579 2.08579C6.46086 1.71071 6.96957 1.5 7.5 1.5H9.5C10.0304 1.5 10.5391 1.71071 10.9142 2.08579C11.2893 2.46086 11.5 2.96957 11.5 3.5M5.5 3.5C5.5 4.03043 5.71071 4.53914 6.08579 4.91421C6.46086 5.28929 6.96957 5.5 7.5 5.5H9.5C10.0304 5.5 10.5391 5.28929 10.9142 4.91421C11.2893 4.53914 11.5 4.03043 11.5 3.5M10.5 9.5H8C7.60218 9.5 7.22064 9.65804 6.93934 9.93934C6.65804 10.2206 6.5 10.6022 6.5 11C6.5 11.3978 6.65804 11.7794 6.93934 12.0607C7.22064 12.342 7.60218 12.5 8 12.5H9C9.39782 12.5 9.77936 12.658 10.0607 12.9393C10.342 13.2206 10.5 13.6022 10.5 14C10.5 14.3978 10.342 14.7794 10.0607 15.0607C9.77936 15.342 9.39782 15.5 9 15.5H6.5M8.5 15.5V16.5M8.5 8.5V9.5" stroke="#828282" stroke-width="2" stroke-linecap="round" stroke-linejoin="round"/>
</svg>
