<svg width="21" height="21" viewBox="0 0 21 21" fill="none" xmlns="http://www.w3.org/2000/svg">
<path class="svg-path" d="M1.5 3.5H4L5.632 8.397C6.03021 9.59189 6.79434 10.6312 7.81612 11.3676C8.8379 12.104 10.0655 12.5002 11.325 12.5H14C15.4587 12.5 16.8576 11.9205 17.8891 10.8891C18.9205 9.85764 19.5 8.45869 19.5 7C19.5 5.54131 18.9205 4.14236 17.8891 3.11091C16.8576 2.07946 15.4587 1.5 14 1.5H13.5V7.5M5.5 7.5H19.5M8.5 15.5L9.5 12.5M15.5 12.5L16.5 15.5M5.5 17.5C5.5 18.0304 5.71071 18.5391 6.08579 18.9142C6.46086 19.2893 6.96957 19.5 7.5 19.5C8.03043 19.5 8.53914 19.2893 8.91421 18.9142C9.28929 18.5391 9.5 18.0304 9.5 17.5C9.5 16.9696 9.28929 16.4609 8.91421 16.0858C8.53914 15.7107 8.03043 15.5 7.5 15.5C6.96957 15.5 6.46086 15.7107 6.08579 16.0858C5.71071 16.4609 5.5 16.9696 5.5 17.5ZM15.5 17.5C15.5 18.0304 15.7107 18.5391 16.0858 18.9142C16.4609 19.2893 16.9696 19.5 17.5 19.5C18.0304 19.5 18.5391 19.2893 18.9142 18.9142C19.2893 18.5391 19.5 18.0304 19.5 17.5C19.5 16.9696 19.2893 16.4609 18.9142 16.0858C18.5391 15.7107 18.0304 15.5 17.5 15.5C16.9696 15.5 16.4609 15.7107 16.0858 16.0858C15.7107 16.4609 15.5 16.9696 15.5 17.5Z" stroke="#828282" stroke-width="2" stroke-linecap="round" stroke-linejoin="round"/>
</svg>
