<svg width="21" height="19" viewBox="0 0 21 19" fill="none" xmlns="http://www.w3.org/2000/svg">
<path class="svg-path" d="M8.4817 12.5H2.42372C2.15595 12.5 1.89913 12.3946 1.70979 12.2071C1.52044 12.0196 1.41406 11.7652 1.41406 11.5V3.5C1.41406 3.23478 1.52044 2.98043 1.70979 2.79289C1.89913 2.60536 2.15595 2.5 2.42372 2.5H8.4817M5.45271 16.5H8.4817M15.5493 5.5V5.51M7.47203 12.5V16.5M11.5107 2.5C11.5107 2.23478 11.6171 1.98043 11.8064 1.79289C11.9958 1.60536 12.2526 1.5 12.5203 1.5H18.5783C18.8461 1.5 19.1029 1.60536 19.2923 1.79289C19.4816 1.98043 19.588 2.23478 19.588 2.5V16.5C19.588 16.7652 19.4816 17.0196 19.2923 17.2071C19.1029 17.3946 18.8461 17.5 18.5783 17.5H12.5203C12.2526 17.5 11.9958 17.3946 11.8064 17.2071C11.6171 17.0196 11.5107 16.7652 11.5107 16.5V2.5ZM14.5397 13.5C14.5397 13.7652 14.646 14.0196 14.8354 14.2071C15.0247 14.3946 15.2815 14.5 15.5493 14.5C15.8171 14.5 16.0739 14.3946 16.2633 14.2071C16.4526 14.0196 16.559 13.7652 16.559 13.5C16.559 13.2348 16.4526 12.9804 16.2633 12.7929C16.0739 12.6054 15.8171 12.5 15.5493 12.5C15.2815 12.5 15.0247 12.6054 14.8354 12.7929C14.646 12.9804 14.5397 13.2348 14.5397 13.5Z" stroke="#828282" stroke-width="2" stroke-linecap="round" stroke-linejoin="round"/>
</svg>
