<svg width="21" height="21" viewBox="0 0 21 21" fill="none" xmlns="http://www.w3.org/2000/svg">
<path class="svg-path" d="M13.3 7.50016C13.1188 7.18592 12.8557 6.92686 12.5386 6.75071C12.2215 6.57456 11.8625 6.48795 11.5 6.50016H9.5C8.96957 6.50016 8.46086 6.71087 8.08579 7.08594C7.71071 7.46102 7.5 7.96972 7.5 8.50016C7.5 9.03059 7.71071 9.5393 8.08579 9.91437C8.46086 10.2894 8.96957 10.5002 9.5 10.5002H11.5C12.0304 10.5002 12.5391 10.7109 12.9142 11.0859C13.2893 11.461 13.5 11.9697 13.5 12.5002C13.5 13.0306 13.2893 13.5393 12.9142 13.9144C12.5391 14.2894 12.0304 14.5002 11.5 14.5002H9.5C9.13749 14.5124 8.77849 14.4258 8.46142 14.2496C8.14435 14.0735 7.88115 13.8144 7.7 13.5002M10.5 5.5V15.5M1.5 10.5C1.5 11.6819 1.73279 12.8522 2.18508 13.9442C2.63738 15.0361 3.30031 16.0282 4.13604 16.864C4.97177 17.6997 5.96392 18.3626 7.05585 18.8149C8.14778 19.2672 9.3181 19.5 10.5 19.5C11.6819 19.5 12.8522 19.2672 13.9442 18.8149C15.0361 18.3626 16.0282 17.6997 16.864 16.864C17.6997 16.0282 18.3626 15.0361 18.8149 13.9442C19.2672 12.8522 19.5 11.6819 19.5 10.5C19.5 9.3181 19.2672 8.14778 18.8149 7.05585C18.3626 5.96392 17.6997 4.97177 16.864 4.13604C16.0282 3.30031 15.0361 2.63738 13.9442 2.18508C12.8522 1.73279 11.6819 1.5 10.5 1.5C9.3181 1.5 8.14778 1.73279 7.05585 2.18508C5.96392 2.63738 4.97177 3.30031 4.13604 4.13604C3.30031 4.97177 2.63738 5.96392 2.18508 7.05585C1.73279 8.14778 1.5 9.3181 1.5 10.5Z" stroke="#828282" stroke-width="2" stroke-linecap="round" stroke-linejoin="round"/>
</svg>
