<svg width="19" height="19" viewBox="0 0 19 19" fill="none" xmlns="http://www.w3.org/2000/svg">
<path class="svg-path" d="M1.5 18H5.5L7 15M14.5 18L13.5 13H8.5L9.5 6M9.5 6L1.5 8M9.5 6L17.5 9M8.5 2C8.5 2.26522 8.60536 2.51957 8.79289 2.70711C8.98043 2.89464 9.23478 3 9.5 3C9.76522 3 10.0196 2.89464 10.2071 2.70711C10.3946 2.51957 10.5 2.26522 10.5 2C10.5 1.73478 10.3946 1.48043 10.2071 1.29289C10.0196 1.10536 9.76522 1 9.5 1C9.23478 1 8.98043 1.10536 8.79289 1.29289C8.60536 1.48043 8.5 1.73478 8.5 2Z" stroke="#828282" stroke-width="2" stroke-linecap="round" stroke-linejoin="round"/>
</svg>
