<svg width="21" height="19" viewBox="0 0 21 19" fill="none" xmlns="http://www.w3.org/2000/svg">
<path d="M10.5005 1C10.184 1.22717 9.9276 1.52797 9.75338 1.87642C9.57915 2.22488 9.49237 2.6105 9.50053 3C9.49237 3.3895 9.57915 3.77512 9.75338 4.12358C9.9276 4.47203 10.184 4.77283 10.5005 5M14.5005 1C14.184 1.22717 13.9276 1.52797 13.7534 1.87642C13.5791 2.22488 13.4924 2.6105 13.5005 3C13.4924 3.3895 13.5791 3.77512 13.7534 4.12358C13.9276 4.47203 14.184 4.77283 14.5005 5M6.50053 1C6.18403 1.22717 5.9276 1.52797 5.75337 1.87642C5.57915 2.22488 5.49237 2.6105 5.50053 3C5.49237 3.3895 5.57915 3.77512 5.75337 4.12358C5.9276 4.47203 6.18403 4.77283 6.50053 5M2.5 8H18.5C18.7652 8 19.0196 8.10536 19.2071 8.29289C19.3946 8.48043 19.5 8.73478 19.5 9V9.5C19.5 11 16.983 15.073 15.5 16V17C15.5 17.2652 15.3946 17.5196 15.2071 17.7071C15.0196 17.8946 14.7652 18 14.5 18H6.5C6.23478 18 5.98043 17.8946 5.79289 17.7071C5.60536 17.5196 5.5 17.2652 5.5 17V16C3.813 14.946 1.5 11 1.5 9.5V9C1.5 8.73478 1.60536 8.48043 1.79289 8.29289C1.98043 8.10536 2.23478 8 2.5 8Z" stroke="white" stroke-width="2" stroke-linecap="round" stroke-linejoin="round"/>
</svg>
