<svg width="19" height="19" viewBox="0 0 19 19" fill="none" xmlns="http://www.w3.org/2000/svg">
<path class="svg-path" d="M5.5 5.5V3.5C5.5 2.96957 5.71071 2.46086 6.08579 2.08579C6.46086 1.71071 6.96957 1.5 7.5 1.5H11.5C12.0304 1.5 12.5391 1.71071 12.9142 2.08579C13.2893 2.46086 13.5 2.96957 13.5 3.5V5.5M7.5 11.5H11.5M9.5 9.5V13.5M1.5 7.5C1.5 6.96957 1.71071 6.46086 2.08579 6.08579C2.46086 5.71071 2.96957 5.5 3.5 5.5H15.5C16.0304 5.5 16.5391 5.71071 16.9142 6.08579C17.2893 6.46086 17.5 6.96957 17.5 7.5V15.5C17.5 16.0304 17.2893 16.5391 16.9142 16.9142C16.5391 17.2893 16.0304 17.5 15.5 17.5H3.5C2.96957 17.5 2.46086 17.2893 2.08579 16.9142C1.71071 16.5391 1.5 16.0304 1.5 15.5V7.5Z" stroke="#828282" stroke-width="2" stroke-linecap="round" stroke-linejoin="round"/>
</svg>
