<svg width="21" height="21" viewBox="0 0 21 21" fill="none" xmlns="http://www.w3.org/2000/svg">
<path class="svg-path" d="M7.48438 19.25V13.25C7.48438 12.7196 7.69509 12.2109 8.07016 11.8358C8.44523 11.4607 8.95394 11.25 9.48438 11.25H11.0844M18.4844 9.25L10.4844 1.25L1.48438 10.25H3.48438V17.25C3.48438 17.7804 3.69509 18.2891 4.07016 18.6642C4.44523 19.0393 4.95394 19.25 5.48438 19.25H9.64338M16.4844 18.25C15.9539 18.25 15.4452 18.0393 15.0702 17.6642C14.6951 17.2891 14.4844 16.7804 14.4844 16.25C14.4844 15.7196 14.6951 15.2109 15.0702 14.8358C15.4452 14.4607 15.9539 14.25 16.4844 14.25M16.4844 18.25C17.0148 18.25 17.5235 18.0393 17.8986 17.6642C18.2737 17.2891 18.4844 16.7804 18.4844 16.25C18.4844 15.7196 18.2737 15.2109 17.8986 14.8358C17.5235 14.4607 17.0148 14.25 16.4844 14.25M16.4844 18.25V19.75M16.4844 14.25V12.75M19.5177 14.5L18.2188 15.25M14.7531 17.25L13.4531 18M13.4531 14.5L14.7531 15.25M18.2188 17.25L19.5188 18" stroke="#828282" stroke-width="2" stroke-linecap="round" stroke-linejoin="round"/>
</svg>
