<svg width="21" height="21" viewBox="0 0 21 21" fill="none" xmlns="http://www.w3.org/2000/svg">
<path class="svg-path" d="M1.5 19.5H19.5M1.5 5.5V6.5C1.5 7.29565 1.81607 8.05871 2.37868 8.62132C2.94129 9.18393 3.70435 9.5 4.5 9.5C5.29565 9.5 6.05871 9.18393 6.62132 8.62132C7.18393 8.05871 7.5 7.29565 7.5 6.5M1.5 5.5H19.5M1.5 5.5L3.5 1.5H17.5L19.5 5.5M7.5 6.5V5.5M7.5 6.5C7.5 7.29565 7.81607 8.05871 8.37868 8.62132C8.94129 9.18393 9.70435 9.5 10.5 9.5C11.2956 9.5 12.0587 9.18393 12.6213 8.62132C13.1839 8.05871 13.5 7.29565 13.5 6.5M13.5 6.5V5.5M13.5 6.5C13.5 7.29565 13.8161 8.05871 14.3787 8.62132C14.9413 9.18393 15.7044 9.5 16.5 9.5C17.2956 9.5 18.0587 9.18393 18.6213 8.62132C19.1839 8.05871 19.5 7.29565 19.5 6.5V5.5M3.5 19.5001V9.3501M17.5 19.5001V9.3501M7.5 19.5V15.5C7.5 14.9696 7.71071 14.4609 8.08579 14.0858C8.46086 13.7107 8.96957 13.5 9.5 13.5H11.5C12.0304 13.5 12.5391 13.7107 12.9142 14.0858C13.2893 14.4609 13.5 14.9696 13.5 15.5V19.5" stroke="#828282" stroke-width="2" stroke-linecap="round" stroke-linejoin="round"/>
</svg>
