<svg width="23" height="19" viewBox="0 0 23 19" fill="none" xmlns="http://www.w3.org/2000/svg">
<path class="svg-path" d="M2.70703 17.7349H20.707M14.3474 6.99263L19.1774 5.69862C19.4329 5.62485 19.7005 5.60275 19.9646 5.63363C20.2287 5.66451 20.484 5.74774 20.7156 5.87846C20.9471 6.00918 21.1503 6.18476 21.3132 6.39494C21.4761 6.60511 21.5954 6.84565 21.6642 7.1025C21.733 7.35934 21.75 7.62733 21.714 7.89079C21.678 8.15425 21.5898 8.40789 21.4546 8.63687C21.3194 8.86584 21.14 9.06557 20.9267 9.22435C20.7134 9.38314 20.4706 9.4978 20.2124 9.56162L5.72344 13.4446L1.27344 8.42462L4.17044 7.64862L6.62044 9.06262L9.51744 8.28662L5.77444 2.04262L8.67244 1.26562L14.3474 6.99263Z" stroke="#828282" stroke-width="2" stroke-linecap="round" stroke-linejoin="round"/>
</svg>
